<mxfile host="app.diagrams.net" modified="2024-04-13T15:49:40.508Z" agent="Mozilla/5.0 (Windows NT 10.0; Win64; x64) AppleWebKit/537.36 (KHTML, like Gecko) Chrome/123.0.0.0 Safari/537.36" etag="wvWW31xpUAPyga85vUmZ" version="24.2.5" type="device">
  <diagram id="C5RBs43oDa-KdzZeNtuy" name="Page-1">
    <mxGraphModel dx="1050" dy="522" grid="1" gridSize="10" guides="1" tooltips="1" connect="1" arrows="1" fold="1" page="1" pageScale="1" pageWidth="827" pageHeight="1169" background="#66FF66" math="0" shadow="0">
      <root>
        <mxCell id="WIyWlLk6GJQsqaUBKTNV-0" />
        <mxCell id="WIyWlLk6GJQsqaUBKTNV-1" parent="WIyWlLk6GJQsqaUBKTNV-0" />
        <mxCell id="JJ2t-KnP88xIfO88hmzd-1" value="&lt;span style=&quot;font-size: 15px;&quot;&gt;Personal life information&lt;/span&gt;" style="swimlane;whiteSpace=wrap;html=1;startSize=50;" parent="WIyWlLk6GJQsqaUBKTNV-1" vertex="1">
          <mxGeometry x="610" y="40" width="210" height="160" as="geometry" />
        </mxCell>
        <mxCell id="JJ2t-KnP88xIfO88hmzd-10" value="Email address" style="text;strokeColor=none;fillColor=none;align=center;verticalAlign=middle;spacingLeft=4;spacingRight=4;overflow=hidden;points=[[0,0.5],[1,0.5]];portConstraint=eastwest;rotatable=0;whiteSpace=wrap;html=1;fontSize=16;" parent="JJ2t-KnP88xIfO88hmzd-1" vertex="1">
          <mxGeometry x="25" y="80" width="150" height="30" as="geometry" />
        </mxCell>
        <mxCell id="JJ2t-KnP88xIfO88hmzd-9" value="Home address" style="text;strokeColor=none;fillColor=none;align=center;verticalAlign=middle;spacingLeft=4;spacingRight=4;overflow=hidden;points=[[0,0.5],[1,0.5]];portConstraint=eastwest;rotatable=0;whiteSpace=wrap;html=1;fontSize=16;" parent="JJ2t-KnP88xIfO88hmzd-1" vertex="1">
          <mxGeometry x="10" y="110" width="180" height="30" as="geometry" />
        </mxCell>
        <mxCell id="JJ2t-KnP88xIfO88hmzd-8" value="Age" style="text;strokeColor=none;fillColor=none;align=center;verticalAlign=middle;spacingLeft=4;spacingRight=4;overflow=hidden;points=[[0,0.5],[1,0.5]];portConstraint=eastwest;rotatable=0;whiteSpace=wrap;html=1;fontSize=16;" parent="JJ2t-KnP88xIfO88hmzd-1" vertex="1">
          <mxGeometry x="60" y="130" width="80" height="30" as="geometry" />
        </mxCell>
        <mxCell id="JJ2t-KnP88xIfO88hmzd-26" value="Phone number" style="text;strokeColor=none;fillColor=none;align=center;verticalAlign=middle;spacingLeft=4;spacingRight=4;overflow=hidden;points=[[0,0.5],[1,0.5]];portConstraint=eastwest;rotatable=0;whiteSpace=wrap;html=1;fontSize=16;" parent="JJ2t-KnP88xIfO88hmzd-1" vertex="1">
          <mxGeometry x="25" y="50" width="150" height="30" as="geometry" />
        </mxCell>
        <mxCell id="JJ2t-KnP88xIfO88hmzd-2" value="&lt;span style=&quot;font-size: 21px;&quot;&gt;Person&lt;/span&gt;" style="swimlane;horizontal=0;whiteSpace=wrap;html=1;startSize=40;" parent="WIyWlLk6GJQsqaUBKTNV-1" vertex="1">
          <mxGeometry x="250" y="50" width="270" height="210" as="geometry" />
        </mxCell>
        <mxCell id="JJ2t-KnP88xIfO88hmzd-4" value="&lt;span style=&quot;font-size: 16px;&quot;&gt;Name&lt;/span&gt;" style="text;strokeColor=none;fillColor=none;align=center;verticalAlign=middle;spacingLeft=4;spacingRight=4;overflow=hidden;points=[[0,0.5],[1,0.5]];portConstraint=eastwest;rotatable=0;whiteSpace=wrap;html=1;" parent="JJ2t-KnP88xIfO88hmzd-2" vertex="1">
          <mxGeometry x="55" y="10" width="190" height="20" as="geometry" />
        </mxCell>
        <mxCell id="JJ2t-KnP88xIfO88hmzd-7" value="ID" style="text;strokeColor=none;fillColor=none;align=center;verticalAlign=middle;spacingLeft=4;spacingRight=4;overflow=hidden;points=[[0,0.5],[1,0.5]];portConstraint=eastwest;rotatable=0;whiteSpace=wrap;html=1;fontSize=16;" parent="JJ2t-KnP88xIfO88hmzd-2" vertex="1">
          <mxGeometry x="45" y="40" width="210" height="30" as="geometry" />
        </mxCell>
        <mxCell id="JJ2t-KnP88xIfO88hmzd-6" value="Username" style="text;strokeColor=none;fillColor=none;align=center;verticalAlign=middle;spacingLeft=4;spacingRight=4;overflow=hidden;points=[[0,0.5],[1,0.5]];portConstraint=eastwest;rotatable=0;whiteSpace=wrap;html=1;fontSize=16;" parent="JJ2t-KnP88xIfO88hmzd-2" vertex="1">
          <mxGeometry x="50" y="70" width="200" height="40" as="geometry" />
        </mxCell>
        <mxCell id="JJ2t-KnP88xIfO88hmzd-5" value="Password" style="text;strokeColor=none;fillColor=none;align=center;verticalAlign=middle;spacingLeft=4;spacingRight=4;overflow=hidden;points=[[0,0.5],[1,0.5]];portConstraint=eastwest;rotatable=0;whiteSpace=wrap;html=1;fontSize=16;" parent="JJ2t-KnP88xIfO88hmzd-2" vertex="1">
          <mxGeometry x="72.5" y="110" width="155" height="50" as="geometry" />
        </mxCell>
        <mxCell id="JJ2t-KnP88xIfO88hmzd-13" value="" style="endArrow=classic;startArrow=classic;html=1;rounded=0;entryX=0;entryY=0.5;entryDx=0;entryDy=0;" parent="WIyWlLk6GJQsqaUBKTNV-1" target="JJ2t-KnP88xIfO88hmzd-1" edge="1">
          <mxGeometry width="50" height="50" relative="1" as="geometry">
            <mxPoint x="520" y="120" as="sourcePoint" />
            <mxPoint x="610" y="170" as="targetPoint" />
            <Array as="points" />
          </mxGeometry>
        </mxCell>
        <mxCell id="JJ2t-KnP88xIfO88hmzd-14" value="composition" style="text;strokeColor=#666666;fillColor=#f5f5f5;align=center;verticalAlign=middle;spacingLeft=4;spacingRight=4;overflow=hidden;points=[[0,0.5],[1,0.5]];portConstraint=eastwest;rotatable=0;whiteSpace=wrap;html=1;fontSize=14;fontColor=#333333;" parent="WIyWlLk6GJQsqaUBKTNV-1" vertex="1">
          <mxGeometry x="520" y="130" width="90" height="30" as="geometry" />
        </mxCell>
        <mxCell id="_EseRVlNFJwp2hnARYB4-8" style="edgeStyle=orthogonalEdgeStyle;rounded=0;orthogonalLoop=1;jettySize=auto;html=1;exitX=0.5;exitY=0;exitDx=0;exitDy=0;entryX=0;entryY=0.5;entryDx=0;entryDy=0;" parent="WIyWlLk6GJQsqaUBKTNV-1" source="JJ2t-KnP88xIfO88hmzd-18" target="JJ2t-KnP88xIfO88hmzd-2" edge="1">
          <mxGeometry relative="1" as="geometry" />
        </mxCell>
        <mxCell id="JJ2t-KnP88xIfO88hmzd-18" value="Admin" style="swimlane;whiteSpace=wrap;html=1;startSize=40;fontSize=20;" parent="WIyWlLk6GJQsqaUBKTNV-1" vertex="1">
          <mxGeometry x="20" y="330" width="180" height="220" as="geometry" />
        </mxCell>
        <mxCell id="JJ2t-KnP88xIfO88hmzd-32" value="Create" style="text;strokeColor=none;fillColor=none;align=center;verticalAlign=middle;spacingLeft=4;spacingRight=4;overflow=hidden;points=[[0,0.5],[1,0.5]];portConstraint=eastwest;rotatable=0;whiteSpace=wrap;html=1;fontSize=16;" parent="JJ2t-KnP88xIfO88hmzd-18" vertex="1">
          <mxGeometry x="50" y="50" width="80" height="30" as="geometry" />
        </mxCell>
        <mxCell id="JJ2t-KnP88xIfO88hmzd-31" value="Read" style="text;strokeColor=none;fillColor=none;align=center;verticalAlign=middle;spacingLeft=4;spacingRight=4;overflow=hidden;points=[[0,0.5],[1,0.5]];portConstraint=eastwest;rotatable=0;whiteSpace=wrap;html=1;fontSize=16;" parent="JJ2t-KnP88xIfO88hmzd-18" vertex="1">
          <mxGeometry x="50" y="80" width="80" height="30" as="geometry" />
        </mxCell>
        <mxCell id="JJ2t-KnP88xIfO88hmzd-30" value="Update" style="text;strokeColor=none;fillColor=none;align=center;verticalAlign=middle;spacingLeft=4;spacingRight=4;overflow=hidden;points=[[0,0.5],[1,0.5]];portConstraint=eastwest;rotatable=0;whiteSpace=wrap;html=1;fontSize=16;" parent="JJ2t-KnP88xIfO88hmzd-18" vertex="1">
          <mxGeometry x="50" y="110" width="80" height="30" as="geometry" />
        </mxCell>
        <mxCell id="JJ2t-KnP88xIfO88hmzd-29" value="Remove" style="text;strokeColor=none;fillColor=none;align=center;verticalAlign=middle;spacingLeft=4;spacingRight=4;overflow=hidden;points=[[0,0.5],[1,0.5]];portConstraint=eastwest;rotatable=0;whiteSpace=wrap;html=1;fontSize=16;" parent="JJ2t-KnP88xIfO88hmzd-18" vertex="1">
          <mxGeometry x="50" y="140" width="80" height="30" as="geometry" />
        </mxCell>
        <mxCell id="JJ2t-KnP88xIfO88hmzd-28" value="Restore" style="text;strokeColor=none;fillColor=none;align=center;verticalAlign=middle;spacingLeft=4;spacingRight=4;overflow=hidden;points=[[0,0.5],[1,0.5]];portConstraint=eastwest;rotatable=0;whiteSpace=wrap;html=1;fontSize=16;" parent="JJ2t-KnP88xIfO88hmzd-18" vertex="1">
          <mxGeometry x="50" y="170" width="80" height="30" as="geometry" />
        </mxCell>
        <mxCell id="QyGnM2JLPzVFYehJ1gt4-1" style="edgeStyle=none;curved=1;rounded=0;orthogonalLoop=1;jettySize=auto;html=1;entryX=1;entryY=0.5;entryDx=0;entryDy=0;fontSize=12;startSize=8;endSize=8;" parent="WIyWlLk6GJQsqaUBKTNV-1" source="JJ2t-KnP88xIfO88hmzd-20" target="JJ2t-KnP88xIfO88hmzd-18" edge="1">
          <mxGeometry relative="1" as="geometry" />
        </mxCell>
        <mxCell id="QyGnM2JLPzVFYehJ1gt4-2" style="edgeStyle=none;curved=1;rounded=0;orthogonalLoop=1;jettySize=auto;html=1;entryX=0.5;entryY=1;entryDx=0;entryDy=0;fontSize=12;startSize=8;endSize=8;" parent="WIyWlLk6GJQsqaUBKTNV-1" source="JJ2t-KnP88xIfO88hmzd-20" target="JJ2t-KnP88xIfO88hmzd-2" edge="1">
          <mxGeometry relative="1" as="geometry" />
        </mxCell>
        <mxCell id="JJ2t-KnP88xIfO88hmzd-20" value="Student" style="swimlane;whiteSpace=wrap;html=1;startSize=40;fontSize=20;" parent="WIyWlLk6GJQsqaUBKTNV-1" vertex="1">
          <mxGeometry x="282.5" y="330" width="205" height="220" as="geometry" />
        </mxCell>
        <mxCell id="JJ2t-KnP88xIfO88hmzd-33" value="Write homeworks" style="text;strokeColor=none;fillColor=none;align=center;verticalAlign=middle;spacingLeft=4;spacingRight=4;overflow=hidden;points=[[0,0.5],[1,0.5]];portConstraint=eastwest;rotatable=0;whiteSpace=wrap;html=1;fontSize=16;" parent="JJ2t-KnP88xIfO88hmzd-20" vertex="1">
          <mxGeometry x="12.5" y="100" width="180" height="45" as="geometry" />
        </mxCell>
        <mxCell id="JJ2t-KnP88xIfO88hmzd-35" value="Watch Grade or Course" style="text;strokeColor=none;fillColor=none;align=center;verticalAlign=middle;spacingLeft=4;spacingRight=4;overflow=hidden;points=[[0,0.5],[1,0.5]];portConstraint=eastwest;rotatable=0;whiteSpace=wrap;html=1;fontSize=16;" parent="JJ2t-KnP88xIfO88hmzd-20" vertex="1">
          <mxGeometry x="2.5" y="57.5" width="200" height="42.5" as="geometry" />
        </mxCell>
        <mxCell id="JJ2t-KnP88xIfO88hmzd-25" value="Professor" style="swimlane;whiteSpace=wrap;html=1;startSize=40;fontSize=20;" parent="WIyWlLk6GJQsqaUBKTNV-1" vertex="1">
          <mxGeometry x="610" y="330" width="200" height="220" as="geometry" />
        </mxCell>
        <mxCell id="JJ2t-KnP88xIfO88hmzd-34" value="Give homeworks" style="text;strokeColor=none;fillColor=none;align=center;verticalAlign=middle;spacingLeft=4;spacingRight=4;overflow=hidden;points=[[0,0.5],[1,0.5]];portConstraint=eastwest;rotatable=0;whiteSpace=wrap;html=1;fontSize=16;" parent="JJ2t-KnP88xIfO88hmzd-25" vertex="1">
          <mxGeometry x="25" y="140" width="150" height="45" as="geometry" />
        </mxCell>
        <mxCell id="JJ2t-KnP88xIfO88hmzd-27" value="Create Grades or Courses" style="text;strokeColor=none;fillColor=none;align=center;verticalAlign=middle;spacingLeft=4;spacingRight=4;overflow=hidden;points=[[0,0.5],[1,0.5]];portConstraint=eastwest;rotatable=0;whiteSpace=wrap;html=1;fontSize=16;" parent="JJ2t-KnP88xIfO88hmzd-25" vertex="1">
          <mxGeometry y="105" width="200" height="35" as="geometry" />
        </mxCell>
        <mxCell id="iIfX5RDlXKjknKP-Vc-E-2" value="Add or Remove students from a course" style="text;strokeColor=none;fillColor=none;align=center;verticalAlign=middle;spacingLeft=4;spacingRight=4;overflow=hidden;points=[[0,0.5],[1,0.5]];portConstraint=eastwest;rotatable=0;whiteSpace=wrap;html=1;fontSize=16;" parent="JJ2t-KnP88xIfO88hmzd-25" vertex="1">
          <mxGeometry x="7.5" y="55" width="185" height="50" as="geometry" />
        </mxCell>
        <mxCell id="_EseRVlNFJwp2hnARYB4-6" style="edgeStyle=orthogonalEdgeStyle;rounded=0;orthogonalLoop=1;jettySize=auto;html=1;exitX=1;exitY=0.5;exitDx=0;exitDy=0;" parent="WIyWlLk6GJQsqaUBKTNV-1" source="JJ2t-KnP88xIfO88hmzd-36" edge="1">
          <mxGeometry relative="1" as="geometry">
            <mxPoint x="610" y="470" as="targetPoint" />
            <Array as="points">
              <mxPoint x="550" y="610" />
              <mxPoint x="550" y="470" />
            </Array>
          </mxGeometry>
        </mxCell>
        <mxCell id="_EseRVlNFJwp2hnARYB4-7" style="edgeStyle=orthogonalEdgeStyle;rounded=0;orthogonalLoop=1;jettySize=auto;html=1;exitX=1;exitY=0.5;exitDx=0;exitDy=0;" parent="WIyWlLk6GJQsqaUBKTNV-1" source="JJ2t-KnP88xIfO88hmzd-36" edge="1">
          <mxGeometry relative="1" as="geometry">
            <mxPoint x="488" y="470" as="targetPoint" />
            <Array as="points">
              <mxPoint x="550" y="610" />
              <mxPoint x="550" y="470" />
            </Array>
          </mxGeometry>
        </mxCell>
        <mxCell id="JJ2t-KnP88xIfO88hmzd-36" value="Course" style="rounded=1;whiteSpace=wrap;html=1;fontSize=20;" parent="WIyWlLk6GJQsqaUBKTNV-1" vertex="1">
          <mxGeometry x="400" y="580" width="130" height="60" as="geometry" />
        </mxCell>
        <mxCell id="_EseRVlNFJwp2hnARYB4-3" style="edgeStyle=orthogonalEdgeStyle;rounded=0;orthogonalLoop=1;jettySize=auto;html=1;exitX=0.5;exitY=0;exitDx=0;exitDy=0;entryX=0.5;entryY=1;entryDx=0;entryDy=0;" parent="WIyWlLk6GJQsqaUBKTNV-1" source="JJ2t-KnP88xIfO88hmzd-39" target="JJ2t-KnP88xIfO88hmzd-36" edge="1">
          <mxGeometry relative="1" as="geometry" />
        </mxCell>
        <mxCell id="JJ2t-KnP88xIfO88hmzd-39" value="Homework" style="rounded=1;whiteSpace=wrap;html=1;fontSize=15;" parent="WIyWlLk6GJQsqaUBKTNV-1" vertex="1">
          <mxGeometry x="412.5" y="680" width="105" height="70" as="geometry" />
        </mxCell>
        <mxCell id="dOuCYILPO6LboyERi4aZ-0" style="edgeStyle=orthogonalEdgeStyle;rounded=0;orthogonalLoop=1;jettySize=auto;html=1;entryX=0.5;entryY=1;entryDx=0;entryDy=0;" parent="WIyWlLk6GJQsqaUBKTNV-1" source="JJ2t-KnP88xIfO88hmzd-40" target="JJ2t-KnP88xIfO88hmzd-39" edge="1">
          <mxGeometry relative="1" as="geometry" />
        </mxCell>
        <mxCell id="dOuCYILPO6LboyERi4aZ-1" style="edgeStyle=orthogonalEdgeStyle;rounded=0;orthogonalLoop=1;jettySize=auto;html=1;entryX=0;entryY=0.5;entryDx=0;entryDy=0;" parent="WIyWlLk6GJQsqaUBKTNV-1" source="JJ2t-KnP88xIfO88hmzd-40" target="JJ2t-KnP88xIfO88hmzd-36" edge="1">
          <mxGeometry relative="1" as="geometry">
            <Array as="points">
              <mxPoint x="380" y="820" />
              <mxPoint x="380" y="610" />
            </Array>
          </mxGeometry>
        </mxCell>
        <mxCell id="JJ2t-KnP88xIfO88hmzd-40" value="&lt;span style=&quot;font-size: 20px;&quot;&gt;Grade&lt;/span&gt;" style="rounded=1;whiteSpace=wrap;html=1;" parent="WIyWlLk6GJQsqaUBKTNV-1" vertex="1">
          <mxGeometry x="400" y="790" width="130" height="60" as="geometry" />
        </mxCell>
        <mxCell id="_RgvEsrUhG0mhzcESe3z-3" value="" style="endArrow=diamondThin;endFill=1;endSize=24;html=1;rounded=0;" parent="WIyWlLk6GJQsqaUBKTNV-1" edge="1">
          <mxGeometry width="160" relative="1" as="geometry">
            <mxPoint x="592" y="470" as="sourcePoint" />
            <mxPoint x="612" y="470" as="targetPoint" />
          </mxGeometry>
        </mxCell>
        <mxCell id="_RgvEsrUhG0mhzcESe3z-4" value="" style="endArrow=diamondThin;endFill=1;endSize=24;html=1;rounded=0;" parent="WIyWlLk6GJQsqaUBKTNV-1" edge="1">
          <mxGeometry width="160" relative="1" as="geometry">
            <mxPoint x="198" y="440" as="sourcePoint" />
            <mxPoint x="220.5" y="440" as="targetPoint" />
          </mxGeometry>
        </mxCell>
        <mxCell id="_RgvEsrUhG0mhzcESe3z-7" value="" style="endArrow=diamondThin;endFill=1;endSize=24;html=1;rounded=0;" parent="WIyWlLk6GJQsqaUBKTNV-1" edge="1">
          <mxGeometry width="160" relative="1" as="geometry">
            <mxPoint x="490" y="469" as="sourcePoint" />
            <mxPoint x="510" y="469" as="targetPoint" />
          </mxGeometry>
        </mxCell>
        <mxCell id="_RgvEsrUhG0mhzcESe3z-8" value="" style="endArrow=diamondThin;endFill=1;endSize=24;html=1;rounded=0;" parent="WIyWlLk6GJQsqaUBKTNV-1" edge="1">
          <mxGeometry width="160" relative="1" as="geometry">
            <mxPoint x="383" y="610" as="sourcePoint" />
            <mxPoint x="403" y="610" as="targetPoint" />
          </mxGeometry>
        </mxCell>
        <mxCell id="_RgvEsrUhG0mhzcESe3z-9" value="" style="endArrow=diamondThin;endFill=1;endSize=24;html=1;rounded=0;" parent="WIyWlLk6GJQsqaUBKTNV-1" edge="1">
          <mxGeometry width="160" relative="1" as="geometry">
            <mxPoint x="458" y="646" as="sourcePoint" />
            <mxPoint x="478" y="646" as="targetPoint" />
          </mxGeometry>
        </mxCell>
        <mxCell id="_RgvEsrUhG0mhzcESe3z-10" value="" style="endArrow=diamondThin;endFill=1;endSize=24;html=1;rounded=0;" parent="WIyWlLk6GJQsqaUBKTNV-1" edge="1">
          <mxGeometry width="160" relative="1" as="geometry">
            <mxPoint x="459" y="756" as="sourcePoint" />
            <mxPoint x="479" y="756" as="targetPoint" />
          </mxGeometry>
        </mxCell>
        <mxCell id="_RgvEsrUhG0mhzcESe3z-11" value="" style="endArrow=diamondThin;endFill=1;endSize=24;html=1;rounded=0;" parent="WIyWlLk6GJQsqaUBKTNV-1" edge="1">
          <mxGeometry width="160" relative="1" as="geometry">
            <mxPoint x="522" y="120" as="sourcePoint" />
            <mxPoint x="542" y="120" as="targetPoint" />
          </mxGeometry>
        </mxCell>
        <mxCell id="iIfX5RDlXKjknKP-Vc-E-1" value="" style="edgeStyle=orthogonalEdgeStyle;rounded=0;orthogonalLoop=1;jettySize=auto;html=1;entryX=1;entryY=0.75;entryDx=0;entryDy=0;" parent="WIyWlLk6GJQsqaUBKTNV-1" source="JJ2t-KnP88xIfO88hmzd-25" target="JJ2t-KnP88xIfO88hmzd-2" edge="1">
          <mxGeometry relative="1" as="geometry">
            <Array as="points">
              <mxPoint x="710" y="208" />
              <mxPoint x="608" y="208" />
            </Array>
            <mxPoint x="710" y="330" as="sourcePoint" />
            <mxPoint x="730" y="262.5" as="targetPoint" />
          </mxGeometry>
        </mxCell>
      </root>
    </mxGraphModel>
  </diagram>
</mxfile>
